<?xml version="1.0" encoding="UTF-8"?>
<svg width="63px" height="53px" viewBox="0 0 63 53" version="1.1" xmlns="http://www.w3.org/2000/svg" xmlns:xlink="http://www.w3.org/1999/xlink">
    <!-- Generator: Sketch 53.2 (72643) - https://sketchapp.com -->
    <title>dinner</title>
    <desc>Created with Sketch.</desc>
    <g id="Page-1" stroke="none" stroke-width="1" fill="none" fill-rule="evenodd">
        <g id="dinner" fill="#0585B9" fill-rule="nonzero">
            <path d="M10.2375016,0.787523625 C7.21169033,0.787523625 4.72500158,3.26621925 4.72500158,6.282297 C4.72500158,9.29838263 7.21169033,11.7770782 10.2375016,11.7770782 C13.2633128,11.7770782 15.7500016,9.29838262 15.7500016,6.282297 C15.7500016,3.26621925 13.2633128,0.787523625 10.2375016,0.787523625 Z M52.7625,0.787523625 C49.7366888,0.787523625 47.25,3.26621925 47.25,6.282297 C47.25,9.29838263 49.7366888,11.7770782 52.7625,11.7770782 C55.7883113,11.7770782 58.275,9.29838262 58.275,6.282297 C58.275,3.26621925 55.7883113,0.787523625 52.7625,0.787523625 Z M10.2375016,3.92739637 C11.5609268,3.92739637 12.6000016,4.96313212 12.6000016,6.282297 C12.6000016,7.60146975 11.5609268,8.6372055 10.2375016,8.6372055 C8.91407633,8.6372055 7.87500158,7.60146975 7.87500158,6.282297 C7.87500158,4.96313213 8.91407633,3.92739637 10.2375016,3.92739637 Z M52.7625,3.92739637 C54.0859252,3.92739637 55.125,4.96313212 55.125,6.282297 C55.125,7.60146975 54.0859252,8.6372055 52.7625,8.6372055 C51.4390747,8.6372055 50.4,7.60146975 50.4,6.282297 C50.4,4.96313213 51.4390747,3.92739637 52.7625,3.92739637 Z M10.2375016,12.5375119 C7.27158758,12.5406619 4.75378234,15.0751913 4.72500158,18.0322538 L4.72500158,29.8804432 C4.72500158,31.6815345 5.22419625,33.3261495 6.3738297,34.467552 C7.52346315,35.6090332 9.15873525,36.0865732 10.9757828,36.0865732 L15.7253922,36.0865732 L15.4546891,37.6565332 L6.30000158,37.6565332 C4.98751549,37.6565332 4.27996643,37.363347 3.86367345,36.9451057 C3.44738048,36.5269432 3.15000158,35.8044907 3.15000158,34.467552 L3.15000158,15.6773925 C3.1631607,14.83902 2.39146976,14.0697979 1.5503922,14.0829255 C0.72571905,14.0957617 -0.0129019275,14.8553212 1.575e-06,15.6773925 L1.575e-06,34.467552 C1.575e-06,36.3196732 0.490128188,37.9888582 1.6488297,39.1527832 C2.04967035,39.5555107 2.52032051,39.8621632 3.0269547,40.109517 L1.59961095,50.804712 C1.37967953,51.660252 2.03677661,52.632342 2.91486038,52.7503882 C3.79294414,52.8685132 4.68499343,52.1047957 4.7003922,51.2216932 L6.10312658,40.7963745 C9.01351946,40.796532 11.9645623,40.7963745 14.8886735,40.7963745 L13.412111,49.1611995 C13.2976636,49.8169507 13.6538632,50.5270395 14.2488297,50.8292032 C18.2706402,52.8879645 22.127627,52.860717 25.9875016,51.1235707 C29.771195,52.9616745 33.4320541,52.735032 37.0125016,51.1235707 C40.7242159,52.7181007 45.4470266,53.1849307 48.7511719,51.6141832 C49.3461439,51.3120195 49.702338,50.601852 49.5878906,49.9461007 L48.0128906,40.7963745 L56.7,40.7963745 C56.7194512,40.849137 57.8501831,47.8814333 58.2996094,51.2216932 C58.3150444,52.1047957 59.2070535,52.8685132 60.0851396,52.7503882 C60.9632258,52.632342 61.6203236,51.660252 61.4003906,50.804712 L59.9730469,40.109517 C60.4796771,39.8621632 60.9503344,39.5555107 61.3511719,39.1527832 C62.5098757,37.9888583 63,36.3196733 63,34.467552 L63,15.6773925 C63.0131512,14.83902 62.2414721,14.0697979 61.4003906,14.0829255 C60.5757206,14.0957618 59.8370929,14.8553213 59.85,15.6773925 L59.85,34.467552 C59.85,35.8044908 59.5526243,36.5269433 59.1363281,36.9451058 C58.720032,37.363347 58.0124869,37.6565333 56.7,37.6565333 L47.4714844,37.6565333 L47.2007813,36.0865733 L52.0242188,36.0865733 C53.8412648,36.0865733 55.47654,35.6090333 56.6261719,34.467552 C57.7758038,33.3261495 58.275,31.6815345 58.275,29.8804433 L58.275,18.0322538 C58.2297975,14.9891175 55.5716542,12.5823049 52.7625,12.5375119 C49.9762147,12.6080719 47.2563236,14.94045 47.25,18.0322538 L47.25,27.4519508 L45.7242187,27.4519508 L44.8628906,22.4722575 C44.7367489,21.7519312 44.0460799,21.172725 43.3125,21.1721738 L19.6875016,21.1721738 C18.9539217,21.172725 18.2632527,21.7519313 18.137111,22.4722575 L17.2511734,27.4519508 L15.7500016,27.4519508 L15.7500016,18.0322538 C15.7721382,15.0788925 13.1813813,12.5598533 10.2375016,12.5375119 L10.2375016,12.5375119 Z M10.2375016,15.6773925 C11.6157983,15.798195 12.5864322,16.7479988 12.6000016,18.0322538 L12.6000016,29.021832 C12.6000851,29.8438245 13.3503568,30.5917133 14.1750016,30.591792 L16.7097672,30.591792 L16.2914078,32.946732 L10.9757828,32.946732 C9.69207278,32.946732 9.0017298,32.6454345 8.58867345,32.2353045 C8.1756171,31.8251745 7.87500158,31.1456408 7.87500158,29.8804433 L7.87500158,18.0322538 C7.92494483,16.6015238 8.9287695,15.762285 10.2375016,15.6773925 Z M52.7625,15.6773925 C54.0509839,15.7529925 55.0889798,16.6582238 55.125,18.0322538 L55.125,29.8804433 C55.125,31.1456408 54.8243876,31.8251745 54.4113281,32.2353045 C53.9982686,32.6454345 53.3079304,32.946732 52.0242188,32.946732 L46.659375,32.946732 L46.265625,30.591792 L48.825,30.591792 C49.6496464,30.5917133 50.3999134,29.8438245 50.4,29.021832 L50.4,18.0322538 C50.3825963,16.6239675 51.5435839,15.7398413 52.7625,15.6773925 Z M21.0164078,24.312015 L41.9835937,24.312015 L46.2410156,49.063077 C43.5576487,49.6929195 40.9719004,49.3502783 38.5875,48.4007108 L38.5875,43.1512357 C38.6006512,42.3128632 37.8289737,41.5436333 36.9878922,41.5567845 C36.1632143,41.5693845 35.4245945,42.3292432 35.4375016,43.1512357 L35.4375016,48.4007108 C32.6860317,49.690872 30.1162145,49.4176883 27.5625016,48.4007108 L27.5625016,41.5812758 C27.5756528,40.7429033 26.8039698,39.973752 25.9628922,39.9868245 C25.1382191,39.9994245 24.3995984,40.7592833 24.4125016,41.5812758 L24.4125016,48.4007108 C21.7003358,49.6904782 19.2276685,49.395717 16.7343766,48.4251232 L21.0164078,24.312015 Z" id="Shape"></path>
        </g>
    </g>
</svg>