<?xml version="1.0" encoding="UTF-8"?>
<svg width="60px" height="60px" viewBox="0 0 60 60" version="1.1" xmlns="http://www.w3.org/2000/svg" xmlns:xlink="http://www.w3.org/1999/xlink">
    <!-- Generator: Sketch 53.2 (72643) - https://sketchapp.com -->
    <title>meeting</title>
    <desc>Created with Sketch.</desc>
    <g id="Page-1" stroke="none" stroke-width="1" fill="none" fill-rule="evenodd">
        <g id="meeting" fill="#0585B9" fill-rule="nonzero">
            <path d="M30,47.5 C25.8578644,47.5 22.5,44.1421356 22.5,40 C22.5,35.8578644 25.8578644,32.5 30,32.5 C34.1421356,32.5 37.5,35.8578644 37.5,40 C37.4958658,44.140422 34.140422,47.4958658 30,47.5 L30,47.5 Z M30,35 C27.2385763,35 25,37.2385763 25,40 C25,42.7614237 27.2385763,45 30,45 C32.7614237,45 35,42.7614237 35,40 C35,37.2385763 32.7614237,35 30,35 Z" id="Shape"></path>
            <path d="M38.75,60 L21.25,60 C20.5596441,60 20,59.4403559 20,58.75 L20,51.25 C20.0041326,47.7999336 22.7999336,45.0041326 26.25,45 L33.75,45 C37.2000664,45.0041326 39.9958674,47.7999336 40,51.25 L40,58.75 C40,59.0815206 39.8683039,59.399463 39.6338835,59.6338835 C39.399463,59.8683039 39.0815206,60 38.75,60 Z M22.5,57.5 L37.5,57.5 L37.5,51.25 C37.5,49.1789322 35.8210678,47.5 33.75,47.5 L26.25,47.5 C24.1789322,47.5 22.5,49.1789322 22.5,51.25 L22.5,57.5 Z" id="Shape"></path>
            <path d="M50,41.25 C45.8578644,41.25 42.5,37.8921356 42.5,33.75 C42.5,29.6078644 45.8578644,26.25 50,26.25 C54.1421356,26.25 57.5,29.6078644 57.5,33.75 C57.4958658,37.890422 54.140422,41.2458658 50,41.25 L50,41.25 Z M50,28.75 C47.2385763,28.75 45,30.9885763 45,33.75 C45,36.5114237 47.2385763,38.75 50,38.75 C52.7614237,38.75 55,36.5114237 55,33.75 C55,30.9885763 52.7614237,28.75 50,28.75 Z" id="Shape"></path>
            <path d="M58.75,53.75 L42.5,53.75 L42.5,51.25 L57.5,51.25 L57.5,45 C57.5,42.9289322 55.8210678,41.25 53.75,41.25 L46.25,41.25 C44.1789322,41.25 42.5,42.9289322 42.5,45 L40,45 C40.0041326,41.5499336 42.7999336,38.7541326 46.25,38.75 L53.75,38.75 C57.2000664,38.7541326 59.9958674,41.5499336 60,45 L60,52.5 C60,53.1903559 59.4403559,53.75 58.75,53.75 Z" id="Path"></path>
            <path d="M10,41.25 C5.85786438,41.25 2.5,37.8921356 2.5,33.75 C2.5,29.6078644 5.85786438,26.25 10,26.25 C14.1421356,26.25 17.5,29.6078644 17.5,33.75 C17.4958658,37.890422 14.140422,41.2458658 10,41.25 L10,41.25 Z M10,28.75 C7.23857625,28.75 5,30.9885763 5,33.75 C5,36.5114237 7.23857625,38.75 10,38.75 C12.7614237,38.75 15,36.5114237 15,33.75 C15,30.9885763 12.7614237,28.75 10,28.75 Z" id="Shape"></path>
            <path d="M17.5,53.75 L1.25,53.75 C0.559644063,53.75 8.45442189e-17,53.1903559 0,52.5 L0,45 C0.00413264542,41.5499336 2.79993356,38.7541326 6.25,38.75 L13.75,38.75 C17.2000664,38.7541326 19.9958674,41.5499336 20,45 L17.5,45 C17.5,42.9289322 15.8210678,41.25 13.75,41.25 L6.25,41.25 C4.17893219,41.25 2.5,42.9289322 2.5,45 L2.5,51.25 L17.5,51.25 L17.5,53.75 Z" id="Path"></path>
            <path d="M23.75,30 C23.4185065,29.9999292 23.1006159,29.8681867 22.86625,29.63375 L15.7325,22.5 L3.75,22.5 C1.67893219,22.5 2.53632657e-16,20.8210678 0,18.75 L0,3.75 C-2.53632657e-16,1.67893219 1.67893219,3.80448985e-16 3.75,0 L31.25,0 C33.3210678,1.26816328e-16 35,1.67893219 35,3.75 L35,18.75 C35,20.8210678 33.3210678,22.5 31.25,22.5 L25,22.5 L25,28.75 C25.0001272,29.2555364 24.6957384,29.7113796 24.22875,29.905 C24.0770853,29.9682321 23.9143174,30.0005307 23.75,30 Z M3.75,2.5 C3.05964406,2.5 2.5,3.05964406 2.5,3.75 L2.5,18.75 C2.5,19.4403559 3.05964406,20 3.75,20 L16.25,20 C16.5814935,20.0000708 16.8993841,20.1318133 17.13375,20.36625 L22.5,25.7325 L22.5,21.25 C22.5,20.5596441 23.0596441,20 23.75,20 L31.25,20 C31.9403559,20 32.5,19.4403559 32.5,18.75 L32.5,3.75 C32.5,3.05964406 31.9403559,2.5 31.25,2.5 L3.75,2.5 Z" id="Shape"></path>
            <path d="M42.5,23.75 C41.8096441,23.75 41.25,23.1903559 41.25,22.5 L41.25,18.75 L37.5,18.75 L37.5,16.25 L42.5,16.25 C43.1903559,16.25 43.75,16.8096441 43.75,17.5 L43.75,18.75 L45.25,16.75 C45.486068,16.4352427 45.8565534,16.25 46.25,16.25 L56.25,16.25 C56.9403559,16.25 57.5,15.6903559 57.5,15 L57.5,10 C57.5,9.30964406 56.9403559,8.75 56.25,8.75 L37.5,8.75 L37.5,6.25 L56.25,6.25 C58.3210678,6.25 60,7.92893219 60,10 L60,15 C60,17.0710678 58.3210678,18.75 56.25,18.75 L46.875,18.75 L43.5,23.25 C43.263932,23.5647573 42.8934466,23.75 42.5,23.75 Z" id="Path"></path>
            <rect id="Rectangle" x="42.5" y="11.25" width="12.5" height="2.5"></rect>
            <rect id="Rectangle" x="37.5" y="11.25" width="2.5" height="2.5"></rect>
            <path d="M8.75,15 C6.67893219,15 5,13.3210678 5,11.25 C5,9.17893219 6.67893219,7.5 8.75,7.5 C10.8210678,7.5 12.5,9.17893219 12.5,11.25 C12.5,12.2445618 12.1049118,13.198389 11.4016504,13.9016504 C10.698389,14.6049118 9.74456184,15 8.75,15 Z M8.75,10 C8.05964406,10 7.5,10.5596441 7.5,11.25 C7.5,11.9403559 8.05964406,12.5 8.75,12.5 C9.44035594,12.5 10,11.9403559 10,11.25 C10,10.5596441 9.44035594,10 8.75,10 Z" id="Shape"></path>
            <path d="M17.5,15 C15.4289322,15 13.75,13.3210678 13.75,11.25 C13.75,9.17893219 15.4289322,7.5 17.5,7.5 C19.5710678,7.5 21.25,9.17893219 21.25,11.25 C21.25,12.2445618 20.8549118,13.198389 20.1516504,13.9016504 C19.448389,14.6049118 18.4945618,15 17.5,15 L17.5,15 Z M17.5,10 C16.8096441,10 16.25,10.5596441 16.25,11.25 C16.25,11.9403559 16.8096441,12.5 17.5,12.5 C18.1903559,12.5 18.75,11.9403559 18.75,11.25 C18.75,10.5596441 18.1903559,10 17.5,10 Z" id="Shape"></path>
            <path d="M26.25,15 C24.1789322,15 22.5,13.3210678 22.5,11.25 C22.5,9.17893219 24.1789322,7.5 26.25,7.5 C28.3210678,7.5 30,9.17893219 30,11.25 C30,12.2445618 29.6049118,13.198389 28.9016504,13.9016504 C28.198389,14.6049118 27.2445618,15 26.25,15 Z M26.25,10 C25.5596441,10 25,10.5596441 25,11.25 C25,11.9403559 25.5596441,12.5 26.25,12.5 C26.9403559,12.5 27.5,11.9403559 27.5,11.25 C27.5,10.5596441 26.9403559,10 26.25,10 Z" id="Shape"></path>
        </g>
    </g>
</svg>