<?xml version="1.0" encoding="UTF-8"?>
<svg width="58px" height="61px" viewBox="0 0 58 61" version="1.1" xmlns="http://www.w3.org/2000/svg" xmlns:xlink="http://www.w3.org/1999/xlink">
    <!-- Generator: Sketch 53.2 (72643) - https://sketchapp.com -->
    <title>party</title>
    <desc>Created with Sketch.</desc>
    <g id="Page-1" stroke="none" stroke-width="1" fill="none" fill-rule="evenodd">
        <g id="party">
            <path d="M21.0434783,29 C20.5217391,29 20,29.4347826 20,30.0434783 C20,30.5652174 20.4347826,31 21.0434783,31 C21.5652174,31 22,30.5652174 22,30.0434783 C22,29.4347826 21.5652174,29 21.0434783,29 Z" id="Path"></path>
            <path d="M44,19.5333333 C44,20.1555556 45,20.1555556 45,19.5333333 C45,19.1777778 44.7692308,19 44.4615385,19 C44.1538462,19 44,19.2666667 44,19.5333333 Z" id="Path"></path>
            <path d="M15,16.5333333 C15,16.2666667 14.7857143,16 14.5,16 C14.2142857,16 14,16.2666667 14,16.5333333 C14,17.1555556 15,17.1555556 15,16.5333333 Z" id="Path"></path>
            <path d="M39,5.8 C39,5.8 38.9090909,5.7 39,5.8 C38.6363636,5.4 38.1818182,5.2 38,5.2 C38,5.2 38.0909091,5.3 38.0909091,5.4 C38.2727273,5.6 38.6363636,5.7 39,5.8 Z" id="Path"></path>
            <polygon id="Path" points="31.1136364 31.4175824 32.4772727 33 32.8181818 31.6153846 33.0227273 30.956044 33.3636364 30.8241758 34.25 30.4945055 34.25 30.4945055 35 30.1648352 33.1590909 29.1098901 33.0227273 27 31.7954545 28.0549451 31.3863636 28.3846154 30.6363636 28.1868132 29.2727273 27.8571429 29.5454545 28.3846154 30.1590909 29.7692308 29 31.5494505"></polygon>
            <path d="M44.9333333,47.35 C44.9333333,47.35 45,47.25 45,47.25 C44.6,47.35 44.2666667,47.45 44,47.75 C44.2666667,47.75 44.6,47.55 44.9333333,47.35 Z" id="Path"></path>
            <path d="M33.0034168,41.3196356 L31.7723745,39.8714431 C33.2206595,38.6404794 35.0310158,37.9163831 36.9862005,37.6991543 C36.4068865,36.3233713 35.6103298,34.8751788 34.5965303,33.4269863 L33.7275593,37.1922869 L30.468918,33.2097574 L25.3275063,33.6442152 L28.0792478,29.2996375 L26.5585485,25.6791562 C25.1102635,24.737831 23.6619786,24.0137348 22.2861078,23.579277 C21.1274798,23.2172289 20.0412661,23 19.0998808,23 C17.7964243,23 16.7826248,23.3620481 16.0584823,24.0861444 C15.4791683,24.6654214 15.1170971,25.4619273 15.0446828,26.4756621 C14.8998543,27.5618065 15.1170971,28.8651798 15.5515826,30.3133723 C16.5653821,33.3545766 18.6653953,36.5406002 21.5619653,39.4369853 C24.4585353,42.2609608 27.6447623,44.4332496 30.6861608,45.4469843 C33.4379023,46.3158999 35.682744,46.1710806 36.9137863,44.9401169 C37.6379288,44.2160207 38,43.2022859 38,41.8989126 C38,41.1748163 37.8551715,40.3783105 37.6379288,39.5093949 C35.8999868,39.6542142 34.234459,40.2334912 33.0034168,41.3196356 Z M21.1274798,32.4856611 C19.6067806,32.4856611 18.3757383,31.2546975 18.3757383,29.7340953 C18.3757383,28.2134931 19.6067806,26.9825295 21.1274798,26.9825295 C22.6481791,26.9825295 23.8792213,28.2134931 23.8792213,29.7340953 C23.8068071,31.2546975 22.5757648,32.4856611 21.1274798,32.4856611 Z" id="Shape"></path>
            <polygon id="Path" fill="#0585B9" fill-rule="nonzero" points="53.1851852 20.0714286 54.9753086 19.5714286 56.2716049 21 56.4567901 18.9285714 58 17.8571429 56.3333333 17.0714286 55.962963 15 54.7901235 16.5714286 53 16.3571429 53.9259259 18.1428571"></polygon>
            <path d="M51.5339806,33 C53.4368932,33 55,31.4368932 55,29.5339806 C55,27.5631068 53.4368932,26 51.5339806,26 C49.631068,26 48,27.5631068 48,29.5339806 C48,31.4368932 49.5631068,33 51.5339806,33 Z" id="Path" fill="#0585B9" fill-rule="nonzero"></path>
            <path d="M43,20.5 C43,21.325 43.675,22 44.5,22 C45.325,22 46,21.325 46,20.5 C46,19.675 45.325,19 44.5,19 C43.675,19 43,19.675 43,20.5 Z" id="Path" fill="#0585B9" fill-rule="nonzero"></path>
            <path d="M35.8243881,6.3771568 C36.4369975,6.87599897 37.2027593,7.0185253 37.8153687,7.08978847 C38.2748257,7.16105164 38.810859,7.2323148 39.270316,7.2323148 C39.5000445,7.87368331 39.6531969,8.58631498 39.5766207,9.37020981 C39.5000445,10.8667363 38.8874351,12.5057892 37.7387925,13.8597893 L39.3468922,15 C40.7252633,13.289684 41.5676013,11.2943153 41.6441774,9.44147298 C41.6441774,8.72884131 41.5676013,7.94494647 41.3378727,7.2323148 C43.7117342,7.08978847 46.0090194,6.3771568 48,5.3082093 L47.0045097,3.66915646 C45.0901053,4.73810396 42.8693962,5.3082093 40.6486872,5.45073563 C40.2658063,4.80936713 39.8063492,4.31052496 39.1937398,3.81168279 C38.6577066,3.31284062 37.6622163,2.88526162 36.666726,3.02778795 C36.0541166,3.09905112 35.5946596,3.45536696 35.2883549,3.88294596 C34.7523217,4.66684079 34.9820502,5.7357883 35.8243881,6.3771568 Z M37.8153687,5.16568296 C37.8153687,5.16568296 37.8919448,5.23694613 37.8153687,5.16568296 C37.5856401,5.16568296 37.2793354,5.0944198 37.1261831,4.95189346 C37.1261831,4.88063029 37.0496069,4.80936713 37.0496069,4.80936713 C37.2027593,4.80936713 37.509064,4.95189346 37.8153687,5.16568296 Z" id="Shape" fill="#0585B9" fill-rule="nonzero"></path>
            <path d="M20.5,27 C19.1184211,27 18,28.1184211 18,29.5 C18,30.8815789 19.1184211,32 20.5,32 C21.8815789,32 23,30.8815789 23,29.5 C22.9342105,28.1184211 21.8157895,27 20.5,27 Z M20.5,30.2236842 C20.1052632,30.2236842 19.7105263,29.8947368 19.7105263,29.5 C19.7105263,29.1052632 20.0394737,28.7105263 20.5,28.7105263 C20.8947368,28.7105263 21.2236842,29.0394737 21.2236842,29.5 C21.2236842,29.8947368 20.8947368,30.2236842 20.5,30.2236842 Z" id="Shape" fill="#0585B9" fill-rule="nonzero"></path>
            <path d="M24.8171178,18 L25.180229,16.1226102 C23.0741843,15.7615737 21.3312507,14.5340495 20.169295,12.728867 C19.0073393,10.9236844 18.5716059,8.8296727 19.0073393,6.80786826 C19.3704505,5.21930762 20.2419173,3.84736889 21.6217397,2.90867397 C23.001562,2.04218635 24.5992511,1.68114984 26.2695624,2.04218635 C27.5041404,2.25880826 28.5934738,2.98088127 29.3196962,4.0639908 C30.0459185,5.14710032 30.2637852,6.37462445 29.9732962,7.60214857 C29.6101851,9.55174572 27.6493848,10.7792698 25.7612068,10.4182333 C25.0349845,10.2738187 24.4540067,9.84057492 24.0908955,9.26291651 C23.6551621,8.6852581 23.5099177,7.96318508 23.6551621,7.24111207 C23.7277844,6.73566095 24.0908955,6.30241714 24.5266289,6.01358794 C24.9623623,5.72475873 25.4707179,5.65255143 25.9790735,5.72475873 L26.3421847,3.84736889 C25.3254734,3.63074699 24.3087622,3.84736889 23.4372954,4.4250273 C22.5658287,5.00268572 21.9848508,5.86917334 21.7669841,6.88007556 C21.5491174,8.10759968 21.7669841,9.26291651 22.4205842,10.346026 C23.0741843,11.3569283 24.1635177,12.0790013 25.3254734,12.2956232 C28.3029849,12.8732816 31.2078742,10.9958917 31.8614742,7.96318508 C32.2245854,6.23020984 31.8614742,4.49723461 30.9173852,2.98088127 C29.9732962,1.53673524 28.4482294,0.453625717 26.7052958,0.164796511 C24.5992511,-0.268447299 22.4205842,0.164796511 20.6050284,1.32011334 C18.7894726,2.47543016 17.5548947,4.35282 17.1917836,6.44683175 C16.6834279,9.0462946 17.1917836,11.6457575 18.6442282,13.8119765 C20.0240506,15.9781956 22.2027175,17.4945489 24.8171178,18 Z" id="Path" fill="#0585B9" fill-rule="nonzero"></path>
            <path d="M47.0524028,45.7629162 C47.1945113,44.2535824 46.6260772,42.6723756 45.4181546,41.2349149 C43.7839065,39.2224699 41.2970072,37.8568822 38.6679994,37.56939 C38.6679994,37.56939 38.5969451,37.56939 38.5969451,37.56939 C37.9574567,35.7006911 36.8916427,33.6882461 35.3995031,31.7476741 L39.2364335,30.2383403 L34.9021233,27.5790379 L34.6179062,22.3323063 L30.7809759,25.710339 L29.217782,25.2791008 C27.086154,23.6260209 24.8834718,22.4041793 22.7518438,21.6854489 C19.2701848,20.5354803 16.4280141,20.8229725 14.7227117,22.6197984 C13.9411148,23.4104018 13.443735,24.4884974 13.2305722,25.782212 C-1.76187797,58.4844437 -0.198684116,60.0656505 0.298695746,60.5687618 C0.58291281,60.8562539 1.08029267,61 1.79083533,61 C7.26201381,61 24.1729291,52.8064738 34.6179062,47.4878691 C35.896883,47.344123 36.962697,46.7691387 37.8153482,45.9785353 C39.3074878,44.4692016 39.7338134,42.1692644 39.1653792,39.438089 C41.0127902,39.7974542 42.7891468,40.8755497 43.9260151,42.3130105 C44.707612,43.319233 45.1339376,44.3973285 45.1339376,45.331678 C43.9260151,45.1879319 42.7180925,45.403551 41.7233328,46.1941544 C41.2970072,46.5535196 40.9417359,47.0566309 40.9417359,47.6316152 C40.9417359,48.0628534 41.0127902,48.4940916 41.2970072,48.7815838 C41.51017,48.9972029 41.7943871,49.212822 42.1496584,49.284695 C43.0733639,49.5721872 44.0681236,49.4284411 44.991829,48.9253298 C45.5602632,48.5659647 46.057643,48.0628534 46.4129144,47.4878691 C46.6260772,47.5597421 46.83924,47.6316152 47.0524028,47.7034882 C50.2498447,48.7097107 53.2341239,50.0034254 56.0762945,51.7283783 L57,50.0752984 C54.0157208,48.3503455 50.8182789,46.9128848 47.5497826,45.9066623 C47.4787284,45.8347893 47.2655656,45.7629162 47.0524028,45.7629162 Z M29.3598905,27.794657 L29.1467277,27.2196728 L30.5678131,27.5790379 L31.34941,27.794657 L31.7757356,27.4352919 L33.0547124,26.2853233 L33.1968209,28.5852605 L35.1152861,29.735229 L34.2626349,30.0945942 L34.2626349,30.0945942 L33.3389294,30.4539594 L32.9836581,30.5977055 L32.8415496,31.3164358 L32.4862782,32.8257696 L31.0651929,31.1008167 L28.7914564,31.3164358 L29.9993789,29.3758639 L29.3598905,27.794657 Z M36.5363714,44.6848207 C35.3284489,45.9066623 33.1257666,46.0504084 30.4257045,45.1879319 C27.4414254,44.1817094 24.3150376,42.0973913 21.472867,39.2224699 C18.7017506,36.3475484 16.5701227,33.1851348 15.5753629,30.1664673 C15.1490373,28.7290065 14.9358745,27.4352919 15.0779831,26.3571963 C15.1490373,25.3509738 15.5043087,24.5603704 16.0727428,23.9853861 C16.7832855,23.2666557 17.7780452,22.9072906 19.057022,22.9072906 C19.9807274,22.9072906 21.0465414,23.1229097 22.1834097,23.4822748 C23.5334407,23.9135131 24.954526,24.6322434 26.3756114,25.5665929 L27.8677509,29.1602447 L25.1676888,33.4726269 L30.2125417,33.0413887 L33.4099837,36.9944057 L34.2626349,33.2570078 C35.2573946,34.6944686 36.0389915,36.1319293 36.6074257,37.497517 C34.6889605,37.7131361 32.9126038,38.4318665 31.4915185,39.6537081 L32.699441,41.0911688 C33.9073636,40.0130733 35.5416117,39.438089 37.2469141,39.366216 C37.4600769,40.2286924 37.6021854,41.0192958 37.6021854,41.7380262 C37.5311311,42.8879948 37.2469141,43.9660903 36.5363714,44.6848207 Z M44.1391779,47.344123 C43.7839065,47.4878691 43.4996895,47.6316152 43.1444181,47.6316152 C43.4286352,47.4159961 43.7839065,47.344123 44.2102321,47.27225 C44.2102321,47.27225 44.1391779,47.27225 44.1391779,47.344123 Z" id="Shape" fill="#0585B9" fill-rule="nonzero"></path>
            <path d="M14.5,19 C15.325,19 16,18.325 16,17.5 C16,16.675 15.325,16 14.5,16 C13.675,16 13,16.675 13,17.5 C13,18.325 13.675,19 14.5,19 Z" id="Path" fill="#0585B9" fill-rule="nonzero"></path>
        </g>
    </g>
</svg>